{"glyphs":{":":{"x_min":0,"x_max":312,"ha":312,"o":"m 73 370 q 73 404 98 429 q 122 453 156 453 q 191 453 215 429 q 239 405 239 370 q 239 335 215 311 q 191 287 156 287 q 123 287 98 312 q 73 337 73 370 z m 73 71 q 73 105 98 129 q 122 154 156 154 q 191 154 215 130 q 239 106 239 71 q 239 37 215 12 q 191 -12 156 -12 q 123 -12 98 13 q 73 38 73 71 z"},"$":{"x_min":0,"x_max":579,"ha":579,"o":"m 262 472 l 262 604 q 228 598 209 583 q 191 567 191 545 q 191 524 208 506 q 226 488 262 472 z m 317 270 l 317 122 q 350 132 365 149 q 381 166 381 192 q 381 214 365 234 q 349 254 317 270 z m 62 195 q 120 158 167 141 q 213 124 256 122 l 256 298 l 193 335 q 122 376 89 425 q 56 473 56 536 q 56 614 111 667 q 166 721 256 729 l 256 822 l 321 822 l 321 728 q 348 726 381 718 q 415 710 466 694 l 466 535 q 416 565 380 581 q 345 596 321 599 l 321 443 l 346 430 q 440 381 481 330 q 522 278 522 209 q 522 120 467 58 q 412 -4 321 -17 l 321 -144 l 256 -144 l 256 -21 l 247 -21 q 216 -21 177 -13 q 139 -6 76 13 z"},"?":{"x_min":0,"x_max":495,"ha":495,"o":"m 111 216 l 111 396 q 194 417 236 447 q 278 478 278 519 q 278 553 253 572 q 228 591 184 591 q 164 591 138 587 q 113 584 83 577 l 93 721 q 119 726 144 729 q 170 731 195 731 q 303 731 367 677 q 431 624 431 534 q 431 457 381 399 q 332 341 241 312 l 238 237 z m 92 71 q 92 105 116 129 q 141 154 175 154 q 210 154 234 130 q 258 106 258 71 q 258 37 234 12 q 209 -12 175 -12 q 142 -12 117 13 q 92 38 92 71 z"},"<":{"x_min":0,"x_max":833,"ha":833,"o":"m 704 583 l 704 476 l 268 298 l 704 120 l 704 13 l 129 250 l 129 347 z"},"'":{"x_min":0,"x_max":172,"ha":172,"o":"m 39 702 l 133 702 l 133 429 l 39 429 z"},"=":{"x_min":0,"x_max":833,"ha":833,"o":"m 124 242 l 709 242 l 709 145 l 124 145 z m 124 452 l 709 452 l 709 355 l 124 355 z"},"a":{"x_min":0,"x_max":553,"ha":553,"o":"m 343 328 q 329 336 317 339 q 304 343 292 343 q 249 343 219 306 q 189 270 189 215 q 189 163 215 129 q 241 94 279 94 q 294 94 310 102 q 326 110 343 127 z m 496 440 l 496 165 q 496 113 498 78 q 500 43 504 18 l 362 -21 l 348 21 q 319 0 292 -11 q 264 -21 234 -21 q 149 -21 91 47 q 33 115 33 216 q 33 322 98 392 q 163 461 262 461 q 285 461 310 455 q 335 448 365 435 z"},"L":{"x_min":0,"x_max":528,"ha":528,"o":"m 81 0 l 81 708 l 250 708 l 250 152 l 526 152 l 526 0 z"},"3":{"x_min":0,"x_max":579,"ha":579,"o":"m 99 204 q 145 169 183 152 q 222 135 256 135 q 300 135 326 158 q 353 181 353 218 q 353 260 316 282 q 280 303 208 303 l 189 303 l 189 425 q 270 428 310 451 q 349 475 349 519 q 349 550 329 569 q 309 589 277 589 q 249 589 216 571 q 183 553 144 515 l 54 610 q 104 671 161 702 q 218 732 283 732 q 378 732 441 673 q 504 614 504 526 q 504 478 482 439 q 460 400 420 375 q 467 352 493 307 q 519 262 519 202 q 519 102 448 39 q 378 -24 264 -24 q 198 -24 133 1 q 67 25 14 71 z"},";":{"x_min":0,"x_max":312,"ha":312,"o":"m 0 -151 l 93 123 l 231 123 l 122 -151 z m 77 370 q 77 404 101 429 q 125 453 159 453 q 194 453 219 429 q 243 405 243 370 q 243 336 219 312 q 194 287 159 287 q 125 287 101 312 q 77 336 77 370 z"},"J":{"x_min":0,"x_max":421,"ha":421,"o":"m 1 148 q 28 136 50 130 q 73 124 90 124 q 140 124 162 157 q 183 190 183 269 l 183 708 l 353 708 l 353 229 q 353 106 290 42 q 227 -23 108 -23 q 85 -23 63 -20 q 41 -17 17 -11 z"},"V":{"x_min":0,"x_max":632,"ha":632,"o":"m 322 -27 l 310 -27 l -24 708 l 155 708 l 322 321 l 490 708 l 656 708 z"},"\"":{"x_min":0,"x_max":331,"ha":331,"o":"m 198 702 l 292 702 l 292 429 l 198 429 z m 39 702 l 133 702 l 133 429 l 39 429 z"},"7":{"x_min":0,"x_max":579,"ha":579,"o":"m 90 0 l 336 568 l 41 568 l 41 708 l 555 708 l 256 0 z"},"S":{"x_min":0,"x_max":551,"ha":551,"o":"m 49 200 q 114 160 160 144 q 206 128 249 128 q 293 128 320 147 q 346 167 346 197 q 346 240 251 294 q 236 303 228 308 l 180 335 q 110 375 77 424 q 43 474 43 537 q 43 623 107 677 q 172 732 274 732 q 312 732 355 723 q 399 714 453 696 l 453 530 q 402 562 356 580 q 310 597 278 597 q 242 597 222 582 q 201 566 201 540 q 201 521 213 505 q 226 489 250 476 l 333 430 q 437 373 473 324 q 509 275 509 208 q 509 104 438 41 q 368 -23 251 -23 q 211 -23 165 -15 q 119 -6 63 11 z"},"}":{"x_min":0,"x_max":500,"ha":500,"o":"m 70 721 l 103 721 q 157 721 189 715 q 222 709 244 697 q 272 681 283 652 q 295 623 295 555 l 295 432 q 295 365 320 337 q 345 309 404 309 q 407 309 414 310 q 420 310 424 310 l 424 208 l 406 208 q 345 208 320 181 q 295 153 295 86 l 295 -37 q 295 -107 283 -135 q 272 -164 244 -179 q 221 -191 188 -197 q 156 -203 107 -203 q 101 -203 89 -203 q 77 -202 70 -202 l 70 -100 q 74 -100 82 -101 q 90 -101 93 -101 q 142 -101 159 -82 q 177 -63 177 -4 l 177 113 q 177 186 199 216 q 221 246 278 259 q 221 272 199 302 q 177 333 177 405 l 177 523 q 177 583 159 601 q 142 620 93 620 q 90 620 82 620 q 74 619 70 619 z"},"Z":{"x_min":0,"x_max":669,"ha":669,"o":"m 17 0 l 369 560 l 53 560 l 80 708 l 642 708 l 291 150 l 642 150 l 615 0 z"},"x":{"x_min":0,"x_max":458,"ha":458,"o":"m -20 0 l 148 217 l -10 440 l 169 440 l 242 337 l 322 440 l 472 440 l 314 234 l 480 0 l 300 0 l 220 114 l 132 0 z"},")":{"x_min":0,"x_max":347,"ha":347,"o":"m 19 -147 q 92 -26 126 76 q 159 179 159 281 q 159 383 126 485 q 93 586 19 708 l 152 708 q 222 599 256 493 q 291 387 291 281 q 291 175 256 69 q 222 -38 152 -147 z"},"&":{"x_min":0,"x_max":715,"ha":715,"o":"m 304 473 q 341 493 360 517 q 380 541 380 566 q 380 591 363 608 q 345 625 319 625 q 290 625 271 608 q 253 591 253 565 q 253 545 266 521 q 279 498 304 473 z m 400 134 l 264 300 q 227 282 208 257 q 189 231 189 199 q 189 159 219 133 q 249 108 297 108 q 319 108 344 114 q 369 121 400 134 z m 512 0 l 484 30 q 433 2 385 -11 q 338 -25 289 -25 q 177 -25 106 36 q 34 96 34 187 q 34 252 69 304 q 104 356 178 401 q 146 439 131 478 q 115 517 115 556 q 115 632 170 682 q 225 732 308 732 q 396 732 452 684 q 508 635 508 562 q 508 507 479 463 q 450 418 387 376 l 516 223 q 529 237 540 259 q 551 281 570 334 l 692 300 q 679 245 656 200 q 634 156 600 119 l 700 0 z"},"_":{"x_min":0,"x_max":500,"ha":500,"o":"m 0 -136 l 500 -136 l 500 -236 l 0 -236 z"},"v":{"x_min":0,"x_max":444,"ha":444,"o":"m 214 -28 l -7 440 l 162 440 l 235 272 l 311 440 l 452 440 l 228 -28 z"},"O":{"x_min":0,"x_max":796,"ha":796,"o":"m 211 354 q 211 262 265 199 q 319 137 398 137 q 478 137 531 199 q 585 261 585 354 q 585 447 531 510 q 478 572 398 572 q 319 572 265 510 q 211 447 211 354 z m 37 354 q 37 433 64 501 q 91 570 144 624 q 194 676 260 703 q 326 731 398 731 q 470 731 536 703 q 603 675 654 623 q 706 571 732 502 q 759 434 759 354 q 759 288 740 229 q 722 170 685 122 q 633 53 558 15 q 482 -23 398 -23 q 326 -23 260 5 q 195 33 144 85 q 91 139 64 207 q 37 275 37 354 z"},"(":{"x_min":0,"x_max":347,"ha":347,"o":"m 328 708 q 255 587 222 486 q 189 384 189 281 q 189 178 222 75 q 255 -27 328 -147 l 196 -147 q 126 -38 92 69 q 57 175 57 281 q 57 387 92 493 q 126 599 196 708 z"},"C":{"x_min":0,"x_max":655,"ha":655,"o":"m 604 484 q 558 531 511 554 q 464 577 412 577 q 322 577 265 515 q 208 453 208 356 q 208 259 265 198 q 321 138 412 138 q 466 138 519 161 q 573 183 626 228 l 615 40 q 570 9 516 -7 q 462 -23 404 -23 q 341 -23 284 -3 q 227 16 178 54 q 110 108 73 185 q 37 263 37 354 q 37 433 64 501 q 91 570 142 623 q 194 676 262 704 q 330 732 405 732 q 464 732 519 715 q 573 699 622 665 z"},"W":{"x_min":0,"x_max":894,"ha":894,"o":"m 286 -23 l -10 708 l 161 708 l 299 326 l 447 731 l 460 731 l 609 326 l 745 708 l 903 708 l 609 -23 l 598 -23 l 447 382 l 299 -23 z"},"A":{"x_min":0,"x_max":667,"ha":667,"o":"m 235 225 l 421 225 l 329 447 z m -30 0 l 331 730 l 342 730 l 695 0 l 518 0 l 473 103 l 186 103 l 140 0 z"},"f":{"x_min":0,"x_max":352,"ha":352,"o":"m 346 440 l 346 324 l 241 324 l 241 0 l 85 0 l 85 324 l 21 324 l 21 440 l 85 440 l 85 479 q 85 561 110 620 q 136 678 179 697 l 353 718 l 353 670 q 296 656 269 616 q 241 576 241 508 l 241 440 z"},"Q":{"x_min":0,"x_max":796,"ha":796,"o":"m 116 -56 q 123 -21 133 13 q 144 48 160 84 q 99 139 68 208 q 37 278 37 359 q 37 421 56 480 q 75 539 112 587 q 164 656 238 693 q 313 731 398 731 q 458 731 514 712 q 570 692 618 655 q 686 602 722 524 q 759 446 759 354 q 759 281 730 213 q 702 145 651 95 q 605 49 547 24 q 488 -1 430 -1 q 405 -1 345 12 l 344 12 l 343 2 q 376 -5 490 -44 q 604 -83 686 -87 l 645 -214 q 555 -207 394 -138 q 373 -129 362 -125 l 356 -123 q 218 -64 116 -56 z m 211 354 q 211 262 265 199 q 319 137 398 137 q 478 137 531 199 q 585 261 585 354 q 585 447 531 510 q 478 572 398 572 q 319 572 265 510 q 211 447 211 354 z"},"w":{"x_min":0,"x_max":701,"ha":701,"o":"m 232 -28 l 219 -28 l -6 440 l 159 440 l 250 241 l 356 466 l 374 466 l 474 241 l 569 440 l 709 440 l 477 -28 l 464 -28 l 351 220 z"},"-":{"x_min":0,"x_max":343,"ha":343,"o":"m 42 152 l 42 288 l 301 288 l 301 152 z"},"E":{"x_min":0,"x_max":569,"ha":569,"o":"m 81 0 l 81 708 l 517 708 l 517 562 l 245 562 l 245 434 l 478 434 l 478 289 l 245 289 l 245 149 l 521 149 l 521 0 z"},"s":{"x_min":0,"x_max":424,"ha":424,"o":"m 58 20 l 58 141 q 116 104 148 91 q 181 78 208 78 q 232 78 247 89 q 261 99 261 116 q 261 131 251 141 q 241 150 216 159 l 159 179 q 104 198 75 233 q 46 267 46 314 q 46 380 92 421 q 139 461 216 461 q 251 461 291 451 q 331 441 380 420 l 361 313 q 332 338 297 352 q 262 366 232 366 q 209 366 195 356 q 181 345 181 329 q 181 315 189 307 q 197 299 225 290 l 278 271 q 340 249 366 218 q 393 187 393 136 q 393 63 345 21 q 297 -21 215 -21 q 175 -21 136 -11 q 97 -1 58 20 z"},">":{"x_min":0,"x_max":833,"ha":833,"o":"m 129 583 l 704 347 l 704 250 l 129 13 l 129 120 l 566 298 l 129 476 z"},"l":{"x_min":0,"x_max":266,"ha":266,"o":"m 211 0 l 56 0 l 56 697 l 211 718 z"},"8":{"x_min":0,"x_max":579,"ha":579,"o":"m 289 435 q 333 449 356 472 q 378 494 378 525 q 378 559 353 581 q 327 604 289 604 q 251 604 226 581 q 201 559 201 525 q 201 495 223 472 q 245 450 289 435 z m 289 307 q 243 294 220 269 q 197 244 197 206 q 197 169 223 144 q 250 118 289 118 q 329 118 355 144 q 382 169 382 206 q 382 245 360 269 q 337 293 289 307 z m 147 383 q 101 411 79 448 q 56 485 56 532 q 56 619 121 675 q 186 731 289 731 q 392 731 458 675 q 523 619 523 532 q 523 485 500 448 q 478 411 432 383 q 484 354 513 306 q 541 259 541 200 q 541 104 470 40 q 398 -23 289 -23 q 180 -23 109 40 q 38 103 38 200 q 38 259 66 306 q 95 354 147 383 z"},"\\":{"x_min":0,"x_max":301,"ha":301,"o":"m 254 -93 l -10 731 l 63 731 l 326 -93 z"},"e":{"x_min":0,"x_max":519,"ha":519,"o":"m 178 261 l 369 267 l 369 274 q 369 309 345 331 q 320 353 283 353 q 242 353 214 329 q 186 305 178 261 z m 470 157 l 453 22 q 408 0 365 -10 q 321 -20 277 -20 q 167 -20 100 43 q 32 106 32 208 q 32 314 106 387 q 180 460 285 460 q 375 460 433 406 q 491 353 491 268 q 491 255 489 226 l 489 223 l 475 203 l 175 195 q 178 150 212 123 q 246 95 297 95 q 333 95 377 111 q 421 126 470 157 z"},"b":{"x_min":0,"x_max":553,"ha":553,"o":"m 211 101 q 228 97 239 95 q 250 93 260 93 q 305 93 335 129 q 365 166 365 222 q 365 273 340 304 q 315 335 275 335 q 264 335 248 329 q 232 324 211 312 z m 58 -21 l 58 697 l 211 718 l 211 421 q 240 436 267 444 q 294 451 320 451 q 410 451 465 387 q 521 324 521 221 q 521 113 455 46 q 389 -20 281 -20 q 267 -20 250 -18 q 233 -17 211 -13 l 156 0 z"},"%":{"x_min":0,"x_max":780,"ha":780,"o":"m 578 731 l 653 731 l 202 -23 l 126 -23 z m 504 156 q 504 124 527 101 q 550 77 581 77 q 612 77 636 100 q 659 124 659 156 q 659 188 636 212 q 613 236 581 236 q 550 236 527 212 q 504 188 504 156 z m 401 157 q 401 231 454 284 q 507 337 581 337 q 656 337 708 284 q 761 232 761 157 q 761 83 708 30 q 656 -23 581 -23 q 507 -23 454 30 q 401 83 401 157 z m 121 551 q 121 519 144 496 q 167 472 198 472 q 229 472 252 495 q 275 519 275 551 q 275 584 252 607 q 229 631 198 631 q 167 631 144 607 q 121 583 121 551 z m 19 551 q 19 626 71 678 q 124 731 198 731 q 273 731 325 678 q 378 626 378 551 q 378 477 325 424 q 272 372 198 372 q 124 372 72 424 q 19 477 19 551 z"},"m":{"x_min":0,"x_max":843,"ha":843,"o":"m 502 0 l 349 0 l 349 252 q 349 286 335 304 q 320 322 294 322 q 256 322 235 294 q 214 267 214 217 l 214 0 l 61 0 l 61 440 l 203 440 l 203 366 q 241 411 279 432 q 316 452 360 452 q 408 452 440 432 q 471 412 493 368 q 525 410 564 431 q 602 452 647 452 q 720 452 755 411 q 790 370 790 283 l 790 0 l 637 0 l 637 252 q 637 286 623 304 q 608 322 582 322 q 544 322 523 294 q 502 267 502 217 z"},"#":{"x_min":0,"x_max":769,"ha":769,"o":"m 346 414 l 303 295 l 426 295 l 468 414 z m 346 715 l 454 715 l 383 512 l 501 512 l 573 715 l 681 715 l 609 512 l 747 512 l 711 414 l 574 414 l 533 296 l 675 296 l 640 198 l 498 198 l 426 -5 l 318 -5 l 390 198 l 271 198 l 198 -5 l 91 -5 l 162 198 l 22 198 l 59 296 l 197 296 l 239 414 l 93 414 l 129 512 l 274 512 z"},",":{"x_min":0,"x_max":289,"ha":289,"o":"m -3 -151 l 91 123 l 229 123 l 120 -151 z"},"n":{"x_min":0,"x_max":556,"ha":556,"o":"m 213 0 l 60 0 l 60 440 l 201 440 l 201 366 q 236 410 276 431 q 315 452 362 452 q 432 452 468 412 q 504 372 504 295 l 504 0 l 352 0 l 352 252 q 352 287 338 304 q 324 322 296 322 q 256 322 234 295 q 213 268 213 217 z"},"h":{"x_min":0,"x_max":556,"ha":556,"o":"m 213 0 l 60 0 l 60 697 l 213 718 l 213 378 q 245 416 282 434 q 319 452 362 452 q 432 452 468 412 q 504 372 504 295 l 504 0 l 352 0 l 352 252 q 352 287 338 304 q 324 322 296 322 q 256 322 234 295 q 213 268 213 217 z"},"z":{"x_min":0,"x_max":453,"ha":453,"o":"m -2 0 l 195 324 l 25 324 l 52 440 l 438 440 l 241 116 l 432 116 l 414 0 z"},"B":{"x_min":0,"x_max":613,"ha":613,"o":"m 235 128 l 305 128 q 356 128 385 153 q 414 178 414 221 q 414 264 386 287 q 357 310 305 310 l 235 310 z m 235 428 l 291 428 q 341 428 369 450 q 397 472 397 511 q 397 551 370 569 q 344 588 287 588 l 235 588 z m 81 0 l 81 708 l 300 708 q 423 708 487 663 q 550 618 550 529 q 550 475 521 437 q 492 399 434 378 q 499 363 535 318 q 572 272 572 206 q 572 104 496 52 q 421 0 273 0 z"},"K":{"x_min":0,"x_max":681,"ha":681,"o":"m 81 0 l 81 708 l 248 708 l 248 400 l 482 708 l 683 708 l 416 371 l 704 0 l 500 0 l 248 326 l 248 0 z"},"R":{"x_min":0,"x_max":637,"ha":637,"o":"m 273 579 l 245 579 l 245 383 l 281 383 q 345 383 378 409 q 412 435 412 483 q 412 534 379 556 q 347 579 273 579 z m 81 0 l 81 708 l 263 708 q 351 708 399 697 q 447 685 484 658 q 523 630 545 588 q 567 546 567 500 q 567 433 533 383 q 499 333 435 304 l 651 0 l 458 0 l 269 278 l 245 278 l 245 0 z"},"T":{"x_min":0,"x_max":618,"ha":618,"o":"m 225 0 l 225 560 l 0 560 l 0 708 l 618 708 l 618 560 l 394 560 l 394 0 z"},"P":{"x_min":0,"x_max":591,"ha":591,"o":"m 273 578 l 250 578 l 250 389 l 281 389 q 345 389 378 414 q 412 438 412 485 q 412 533 379 556 q 346 578 273 578 z m 81 0 l 81 708 l 263 708 q 347 708 396 696 q 446 684 484 655 q 523 626 545 583 q 567 540 567 491 q 567 384 490 321 q 414 258 283 258 q 270 258 263 258 q 256 258 250 259 l 250 0 z"},"|":{"x_min":0,"x_max":500,"ha":500,"o":"m 200 764 l 301 764 l 301 -236 l 200 -236 z"},"t":{"x_min":0,"x_max":354,"ha":354,"o":"m 85 148 l 85 324 l 21 324 l 21 440 l 85 440 l 85 572 l 241 593 l 241 440 l 345 440 l 345 324 l 241 324 l 241 137 q 241 78 257 51 q 273 24 318 2 l 144 -10 q 111 6 98 37 q 85 68 85 148 z"},"M":{"x_min":0,"x_max":884,"ha":884,"o":"m 23 0 l 170 731 l 182 731 l 449 270 l 701 731 l 714 731 l 862 0 l 701 0 l 641 323 l 451 -26 l 440 -26 l 236 328 l 174 0 z"},"g":{"x_min":0,"x_max":553,"ha":553,"o":"m 343 328 q 329 336 317 339 q 304 343 292 343 q 249 343 219 306 q 189 270 189 215 q 189 163 215 129 q 241 94 279 94 q 293 94 310 103 q 326 111 343 127 z m 496 440 l 496 41 q 496 -20 490 -50 q 484 -81 471 -106 q 444 -159 392 -186 q 339 -213 265 -213 q 221 -213 175 -203 q 129 -193 78 -173 l 76 -51 q 125 -77 165 -90 q 205 -102 240 -102 q 292 -102 320 -78 q 348 -53 348 -9 l 348 21 q 322 4 296 -3 q 270 -11 241 -11 q 148 -11 91 51 q 33 114 33 216 q 33 322 98 391 q 163 461 262 461 q 285 461 310 455 q 335 448 365 435 z"},"j":{"x_min":0,"x_max":266,"ha":266,"o":"m 52 604 q 52 639 76 664 q 101 688 136 688 q 171 688 196 664 q 220 640 220 604 q 220 569 196 544 q 171 519 136 519 q 102 519 77 544 q 52 569 52 604 z m 214 -2 q 214 -62 206 -104 q 198 -146 180 -180 l -25 -212 q 20 -168 39 -116 q 59 -64 59 15 l 59 440 l 214 461 z"},"i":{"x_min":0,"x_max":266,"ha":266,"o":"m 49 604 q 49 639 73 664 q 98 688 133 688 q 168 688 193 664 q 217 640 217 604 q 217 569 192 544 q 168 519 133 519 q 99 519 74 544 q 49 569 49 604 z m 211 0 l 56 0 l 56 440 l 211 461 z"},"y":{"x_min":0,"x_max":449,"ha":449,"o":"m 158 0 l 0 440 l 165 440 l 236 213 l 323 440 l 459 440 l 183 -213 l 18 -213 q 55 -178 87 -134 q 118 -89 141 -39 z"},"@":{"x_min":0,"x_max":1000,"ha":1000,"o":"m 570 133 q 543 92 508 73 q 473 53 425 53 q 348 53 307 95 q 267 137 267 219 q 267 336 335 415 q 403 494 503 494 q 542 494 571 478 q 600 462 618 430 l 644 478 l 731 478 l 659 186 q 658 181 657 175 q 656 169 656 166 q 656 149 667 140 q 679 132 702 132 q 721 132 742 142 q 763 151 781 169 q 823 208 844 260 q 866 312 866 375 q 866 492 776 568 q 685 643 542 643 q 473 643 414 626 q 354 610 306 577 q 223 521 178 438 q 134 354 134 255 q 134 105 235 15 q 336 -74 505 -74 q 584 -74 659 -50 q 735 -26 800 19 l 840 -38 q 765 -94 681 -123 q 598 -151 507 -151 q 413 -151 334 -127 q 256 -104 195 -57 q 119 2 82 79 q 44 156 44 254 q 44 335 70 409 q 95 483 145 544 q 217 632 319 678 q 420 723 545 723 q 627 723 700 701 q 772 679 826 638 q 892 587 925 521 q 957 456 957 373 q 957 292 925 224 q 893 156 833 108 q 799 81 759 66 q 718 52 675 52 q 623 52 597 72 q 571 93 570 133 z m 594 342 q 588 381 566 402 q 544 423 509 423 q 453 423 412 362 q 371 302 371 217 q 371 172 391 148 q 411 125 448 125 q 489 125 522 156 q 556 187 568 236 z"},".":{"x_min":0,"x_max":289,"ha":289,"o":"m 62 71 q 62 105 86 130 q 110 154 144 154 q 179 154 204 130 q 228 106 228 71 q 228 37 203 12 q 179 -12 144 -12 q 111 -12 86 13 q 62 38 62 71 z"},"p":{"x_min":0,"x_max":553,"ha":553,"o":"m 60 -212 l 60 440 l 213 440 q 236 449 258 453 q 281 457 304 457 q 399 457 461 391 q 523 325 523 221 q 523 113 456 47 q 390 -20 282 -20 q 268 -20 252 -18 q 236 -17 212 -13 l 212 -186 z m 213 101 q 229 97 241 95 q 252 93 262 93 q 307 93 336 129 q 366 166 366 222 q 366 274 339 309 q 312 343 272 343 q 260 343 246 340 q 232 337 213 331 z"},"X":{"x_min":0,"x_max":720,"ha":720,"o":"m 8 0 l 262 366 l 11 708 l 218 708 l 364 506 l 501 708 l 685 708 l 457 381 l 736 0 l 528 0 l 356 240 l 193 0 z"},"*":{"x_min":0,"x_max":500,"ha":500,"o":"m 249 484 l 173 325 l 84 389 l 211 512 l 38 536 l 71 640 l 226 557 l 195 731 l 304 731 l 273 557 l 428 641 l 462 536 l 288 512 l 416 389 l 326 325 z"},"Y":{"x_min":0,"x_max":620,"ha":620,"o":"m 218 0 l 218 336 l -35 708 l 169 708 l 317 484 l 480 708 l 659 708 l 386 343 l 386 0 z"},"c":{"x_min":0,"x_max":488,"ha":488,"o":"m 444 25 q 403 2 364 -9 q 325 -20 283 -20 q 173 -20 103 46 q 32 112 32 213 q 32 318 108 389 q 184 460 299 460 q 341 460 381 450 q 421 441 458 422 l 441 285 q 405 307 371 319 q 338 330 309 330 q 257 330 223 299 q 189 267 189 220 q 189 170 221 140 q 252 110 304 110 q 336 110 373 124 q 410 138 458 169 z"},"!":{"x_min":0,"x_max":319,"ha":319,"o":"m 71 71 q 71 105 95 129 q 120 154 154 154 q 189 154 213 130 q 237 106 237 71 q 237 37 213 12 q 188 -12 154 -12 q 121 -12 96 13 q 71 38 71 71 z m 125 222 q 97 361 81 480 q 66 600 63 704 l 256 731 q 255 604 177 229 l 174 215 z"},"/":{"x_min":0,"x_max":301,"ha":301,"o":"m 327 731 l 63 -93 l -10 -93 l 254 731 z"},"[":{"x_min":0,"x_max":347,"ha":347,"o":"m 345 -147 l 83 -147 l 83 708 l 345 708 l 345 654 l 206 654 l 206 -93 l 345 -93 z"},"6":{"x_min":0,"x_max":579,"ha":579,"o":"m 186 230 q 186 185 216 154 q 245 122 287 122 q 329 122 359 154 q 388 185 388 230 q 388 275 359 307 q 330 338 287 338 q 245 338 215 307 q 186 275 186 230 z m 285 474 q 288 474 294 475 q 300 475 303 475 q 410 475 477 406 q 544 336 544 227 q 544 121 470 50 q 396 -22 284 -22 q 177 -22 104 54 q 32 129 32 244 q 32 343 99 457 q 167 571 306 708 l 495 708 q 417 626 370 574 q 324 521 285 474 z"},"r":{"x_min":0,"x_max":389,"ha":389,"o":"m 214 0 l 60 0 l 60 440 l 203 440 l 206 363 q 232 409 268 430 q 303 451 356 451 l 368 451 l 368 287 l 352 287 l 335 287 q 263 287 239 271 q 214 254 214 192 z"},"2":{"x_min":0,"x_max":579,"ha":579,"o":"m 21 0 l 21 57 l 277 364 l 279 366 q 350 451 350 497 q 350 535 325 559 q 300 583 260 583 q 224 583 197 559 q 171 536 162 495 l 27 562 q 58 643 121 687 q 184 731 269 731 q 371 731 440 667 q 510 602 510 506 q 510 447 479 384 q 447 320 382 248 l 289 145 l 543 145 l 519 0 z"},"{":{"x_min":0,"x_max":500,"ha":500,"o":"m 431 721 l 431 619 q 427 619 419 620 q 411 620 408 620 q 359 620 342 601 q 324 583 324 522 l 324 405 q 324 333 302 302 q 280 272 223 259 q 280 246 302 216 q 324 186 324 114 l 324 -4 q 324 -64 341 -83 q 358 -101 408 -101 q 411 -101 419 -101 q 427 -100 431 -100 l 431 -202 q 424 -202 412 -203 q 400 -203 394 -203 q 345 -203 312 -197 q 280 -191 257 -179 q 229 -163 218 -135 q 206 -106 206 -37 l 206 86 q 206 153 181 181 q 156 209 97 209 q 94 209 87 208 q 81 208 77 208 l 77 310 q 81 310 87 310 q 94 309 97 309 q 156 309 181 337 q 206 366 206 433 l 206 555 q 206 625 218 653 q 229 682 257 698 q 280 710 312 716 q 345 722 394 722 q 400 722 412 722 q 424 721 431 721 z"},"9":{"x_min":0,"x_max":579,"ha":579,"o":"m 388 478 q 388 523 359 555 q 330 586 288 586 q 246 586 216 554 q 186 523 186 478 q 186 433 216 401 q 246 370 288 370 q 330 370 359 401 q 388 432 388 478 z m 289 234 q 286 234 280 233 q 274 233 271 233 q 165 233 97 303 q 30 373 30 483 q 30 589 104 661 q 179 732 291 732 q 398 732 470 656 q 542 581 542 466 q 542 366 475 251 q 407 136 269 0 l 80 0 q 149 73 198 128 q 247 183 289 234 z"}," ":{"x_min":0,"x_max":289,"ha":289,"o":""},"I":{"x_min":0,"x_max":336,"ha":336,"o":"m 83 0 l 83 708 l 252 708 l 252 0 z"},"H":{"x_min":0,"x_max":769,"ha":769,"o":"m 81 0 l 81 708 l 248 708 l 248 448 l 521 448 l 521 708 l 687 708 l 687 0 l 521 0 l 521 297 l 248 297 l 248 0 z"},"4":{"x_min":0,"x_max":579,"ha":579,"o":"m 327 266 l 327 536 l 153 266 z m 327 0 l 327 140 l 28 140 l 28 273 l 309 708 l 477 708 l 477 266 l 550 266 l 550 140 l 477 140 l 477 0 z"},"~":{"x_min":0,"x_max":833,"ha":833,"o":"m 747 392 l 747 284 q 696 250 651 233 q 606 217 562 217 q 540 217 517 221 q 495 225 472 232 q 460 236 438 244 q 331 281 275 281 q 233 281 188 262 q 143 244 87 204 l 87 312 q 139 347 187 365 q 234 382 276 382 q 333 382 418 354 l 420 353 q 429 350 447 344 q 522 317 564 317 q 605 317 649 335 q 693 353 747 392 z"},"D":{"x_min":0,"x_max":729,"ha":729,"o":"m 248 152 l 285 152 q 396 152 458 206 q 521 259 521 354 q 521 449 458 503 q 396 557 285 557 l 248 557 z m 81 0 l 81 708 l 269 708 q 467 708 580 613 q 692 519 692 354 q 692 255 647 179 q 603 103 517 53 q 468 25 411 12 q 354 0 269 0 z"},"^":{"x_min":0,"x_max":1000,"ha":1000,"o":"m 438 713 l 561 713 l 796 439 l 681 439 l 500 620 l 318 439 l 203 439 z"},"0":{"x_min":0,"x_max":579,"ha":579,"o":"m 197 354 q 197 249 221 189 q 246 130 289 130 q 333 130 357 189 q 382 248 382 354 q 382 460 357 520 q 333 579 289 579 q 247 579 222 519 q 197 459 197 354 z m 35 354 q 35 531 103 631 q 170 731 289 731 q 408 731 476 631 q 544 531 544 354 q 544 177 476 77 q 408 -23 289 -23 q 170 -23 103 77 q 35 177 35 354 z"},"F":{"x_min":0,"x_max":551,"ha":551,"o":"m 81 0 l 81 708 l 521 708 l 521 564 l 249 564 l 249 423 l 492 423 l 492 280 l 249 280 l 249 0 z"},"`":{"x_min":0,"x_max":500,"ha":500,"o":"m 322 515 l 258 515 l 114 684 l 222 684 z"},"k":{"x_min":0,"x_max":514,"ha":514,"o":"m 208 0 l 60 0 l 60 697 l 208 718 l 208 259 l 343 440 l 503 440 l 350 252 l 539 0 l 370 0 l 208 234 z"},"u":{"x_min":0,"x_max":552,"ha":552,"o":"m 345 440 l 497 440 l 497 0 l 356 -21 l 356 65 q 320 21 281 0 q 242 -21 196 -21 q 126 -21 90 19 q 53 59 53 136 l 53 440 l 206 440 l 206 179 q 206 145 220 127 q 234 109 262 109 q 302 109 324 136 q 345 163 345 214 z"},"]":{"x_min":0,"x_max":347,"ha":347,"o":"m 2 708 l 264 708 l 264 -147 l 2 -147 l 2 -93 l 141 -93 l 141 654 l 2 654 z"},"U":{"x_min":0,"x_max":743,"ha":743,"o":"m 241 708 l 241 319 q 241 225 276 178 q 310 132 380 132 q 447 132 483 175 q 518 219 518 302 l 518 708 l 669 708 l 669 302 q 669 148 590 63 q 512 -23 372 -23 q 231 -23 153 62 q 74 147 74 301 l 74 708 z"},"o":{"x_min":0,"x_max":546,"ha":546,"o":"m 187 220 q 187 164 211 130 q 235 95 273 95 q 311 95 335 130 q 359 165 359 220 q 359 275 335 310 q 311 345 273 345 q 235 345 211 311 q 187 276 187 220 z m 31 220 q 31 325 99 393 q 168 461 273 461 q 378 461 447 393 q 516 325 516 220 q 516 115 447 47 q 378 -21 273 -21 q 168 -21 100 47 q 31 115 31 220 z"},"N":{"x_min":0,"x_max":775,"ha":775,"o":"m 81 0 l 81 731 l 97 731 l 538 318 l 538 708 l 694 708 l 694 -27 l 679 -27 l 237 386 l 237 0 z"},"+":{"x_min":0,"x_max":833,"ha":833,"o":"m 367 596 l 466 596 l 466 347 l 709 347 l 709 250 l 466 250 l 466 0 l 367 0 l 367 250 l 124 250 l 124 347 l 367 347 z"},"G":{"x_min":0,"x_max":741,"ha":741,"o":"m 682 393 l 682 49 q 611 13 543 -5 q 476 -23 412 -23 q 250 -23 144 84 q 37 190 37 353 q 37 517 145 625 q 253 732 419 732 q 481 732 538 715 q 595 698 647 663 l 629 486 q 580 536 531 559 q 482 582 428 582 q 333 582 271 518 q 208 455 208 359 q 208 258 268 195 q 329 131 424 131 q 446 131 468 135 q 491 139 515 146 l 515 249 l 381 249 l 381 393 z"},"q":{"x_min":0,"x_max":553,"ha":553,"o":"m 343 335 q 329 339 316 341 q 302 343 292 343 q 248 343 219 307 q 189 271 189 215 q 189 163 215 129 q 241 94 279 94 q 291 94 305 98 q 319 103 343 114 z m 496 440 l 496 -192 l 343 -213 l 343 8 q 313 -6 286 -14 q 258 -21 234 -21 q 142 -21 87 40 q 32 102 32 204 q 32 319 94 387 q 156 456 259 456 q 281 456 307 452 q 333 448 365 440 z"},"d":{"x_min":0,"x_max":553,"ha":553,"o":"m 343 328 q 329 336 317 339 q 304 343 292 343 q 249 343 219 306 q 189 270 189 215 q 189 163 215 129 q 241 94 279 94 q 293 94 309 100 q 325 106 343 119 z m 496 718 l 496 0 l 362 -21 l 356 13 q 324 -4 292 -13 q 261 -21 229 -21 q 137 -21 85 40 q 33 101 33 209 q 33 322 94 391 q 155 459 255 459 q 278 459 300 454 q 321 450 343 440 l 343 697 z"},"1":{"x_min":0,"x_max":579,"ha":579,"o":"m 229 0 l 229 579 l 105 579 l 128 708 l 386 708 l 386 0 z"},"5":{"x_min":0,"x_max":579,"ha":579,"o":"m 83 190 q 128 160 167 145 q 207 130 242 130 q 295 130 329 160 q 363 190 363 237 q 363 290 321 322 q 279 354 209 354 q 176 354 147 349 q 118 345 91 335 l 91 708 l 503 708 l 462 565 l 222 565 l 222 471 q 225 471 230 472 q 261 475 274 475 q 383 475 453 406 q 523 337 523 229 q 523 119 446 47 q 369 -24 248 -24 q 182 -24 122 -3 q 62 19 7 62 z"}}}
